<svg id="visual" viewBox="0 0 900 300" width="900" height="300" xmlns="http://www.w3.org/2000/svg" xmlns:xlink="http://www.w3.org/1999/xlink" version="1.1"><rect x="0" y="0" width="900" height="300" fill="#001220"></rect><path d="M0 150L13.7 155C27.3 160 54.7 170 82 175C109.3 180 136.7 180 163.8 182.8C191 185.7 218 191.3 245.2 191.7C272.3 192 299.7 187 327 183.8C354.3 180.7 381.7 179.3 409 178.5C436.3 177.7 463.7 177.3 491 179.5C518.3 181.7 545.7 186.3 573 185.7C600.3 185 627.7 179 654.8 177.3C682 175.7 709 178.3 736.2 178.3C763.3 178.3 790.7 175.7 818 171.8C845.3 168 872.7 163 886.3 160.5L900 158L900 301L886.3 301C872.7 301 845.3 301 818 301C790.7 301 763.3 301 736.2 301C709 301 682 301 654.8 301C627.7 301 600.3 301 573 301C545.7 301 518.3 301 491 301C463.7 301 436.3 301 409 301C381.7 301 354.3 301 327 301C299.7 301 272.3 301 245.2 301C218 301 191 301 163.8 301C136.7 301 109.3 301 82 301C54.7 301 27.3 301 13.7 301L0 301Z" fill="#2d9cab"></path><path d="M0 196L13.7 198.3C27.3 200.7 54.7 205.3 82 208C109.3 210.7 136.7 211.3 163.8 204.8C191 198.3 218 184.7 245.2 185.8C272.3 187 299.7 203 327 205.7C354.3 208.3 381.7 197.7 409 190.3C436.3 183 463.7 179 491 181.8C518.3 184.7 545.7 194.3 573 197.2C600.3 200 627.7 196 654.8 197C682 198 709 204 736.2 203.8C763.3 203.7 790.7 197.3 818 192.3C845.3 187.3 872.7 183.7 886.3 181.8L900 180L900 301L886.3 301C872.7 301 845.3 301 818 301C790.7 301 763.3 301 736.2 301C709 301 682 301 654.8 301C627.7 301 600.3 301 573 301C545.7 301 518.3 301 491 301C463.7 301 436.3 301 409 301C381.7 301 354.3 301 327 301C299.7 301 272.3 301 245.2 301C218 301 191 301 163.8 301C136.7 301 109.3 301 82 301C54.7 301 27.3 301 13.7 301L0 301Z" fill="#0095b5"></path><path d="M0 230L13.7 226.3C27.3 222.7 54.7 215.3 82 211.8C109.3 208.3 136.7 208.7 163.8 209C191 209.3 218 209.7 245.2 214C272.3 218.3 299.7 226.7 327 229.5C354.3 232.3 381.7 229.7 409 224.5C436.3 219.3 463.7 211.7 491 211C518.3 210.3 545.7 216.7 573 216.3C600.3 216 627.7 209 654.8 210.7C682 212.3 709 222.7 736.2 222.8C763.3 223 790.7 213 818 211.8C845.3 210.7 872.7 218.3 886.3 222.2L900 226L900 301L886.3 301C872.7 301 845.3 301 818 301C790.7 301 763.3 301 736.2 301C709 301 682 301 654.8 301C627.7 301 600.3 301 573 301C545.7 301 518.3 301 491 301C463.7 301 436.3 301 409 301C381.7 301 354.3 301 327 301C299.7 301 272.3 301 245.2 301C218 301 191 301 163.8 301C136.7 301 109.3 301 82 301C54.7 301 27.3 301 13.7 301L0 301Z" fill="#008dbe"></path><path d="M0 229L13.7 227.8C27.3 226.7 54.7 224.3 82 223C109.3 221.7 136.7 221.3 163.8 224.7C191 228 218 235 245.2 239.8C272.3 244.7 299.7 247.3 327 248.3C354.3 249.3 381.7 248.7 409 244.8C436.3 241 463.7 234 491 234.2C518.3 234.3 545.7 241.7 573 239.8C600.3 238 627.7 227 654.8 227.2C682 227.3 709 238.7 736.2 244.5C763.3 250.3 790.7 250.7 818 246.2C845.3 241.7 872.7 232.3 886.3 227.7L900 223L900 301L886.3 301C872.7 301 845.3 301 818 301C790.7 301 763.3 301 736.2 301C709 301 682 301 654.8 301C627.7 301 600.3 301 573 301C545.7 301 518.3 301 491 301C463.7 301 436.3 301 409 301C381.7 301 354.3 301 327 301C299.7 301 272.3 301 245.2 301C218 301 191 301 163.8 301C136.7 301 109.3 301 82 301C54.7 301 27.3 301 13.7 301L0 301Z" fill="#0083c4"></path><path d="M0 243L13.7 245.8C27.3 248.7 54.7 254.3 82 257C109.3 259.7 136.7 259.3 163.8 260.5C191 261.7 218 264.3 245.2 261.3C272.3 258.3 299.7 249.7 327 247.7C354.3 245.7 381.7 250.3 409 254.2C436.3 258 463.7 261 491 262.5C518.3 264 545.7 264 573 261C600.3 258 627.7 252 654.8 248.7C682 245.3 709 244.7 736.2 244.3C763.3 244 790.7 244 818 246.5C845.3 249 872.7 254 886.3 256.5L900 259L900 301L886.3 301C872.7 301 845.3 301 818 301C790.7 301 763.3 301 736.2 301C709 301 682 301 654.8 301C627.7 301 600.3 301 573 301C545.7 301 518.3 301 491 301C463.7 301 436.3 301 409 301C381.7 301 354.3 301 327 301C299.7 301 272.3 301 245.2 301C218 301 191 301 163.8 301C136.7 301 109.3 301 82 301C54.7 301 27.3 301 13.7 301L0 301Z" fill="#0077c7"></path><path d="M0 268L13.7 268.3C27.3 268.7 54.7 269.3 82 271.7C109.3 274 136.7 278 163.8 277.3C191 276.7 218 271.3 245.2 272C272.3 272.7 299.7 279.3 327 281.5C354.3 283.7 381.7 281.3 409 281C436.3 280.7 463.7 282.3 491 280.2C518.3 278 545.7 272 573 269.7C600.3 267.3 627.7 268.7 654.8 270.2C682 271.7 709 273.3 736.2 272.7C763.3 272 790.7 269 818 269.5C845.3 270 872.7 274 886.3 276L900 278L900 301L886.3 301C872.7 301 845.3 301 818 301C790.7 301 763.3 301 736.2 301C709 301 682 301 654.8 301C627.7 301 600.3 301 573 301C545.7 301 518.3 301 491 301C463.7 301 436.3 301 409 301C381.7 301 354.3 301 327 301C299.7 301 272.3 301 245.2 301C218 301 191 301 163.8 301C136.7 301 109.3 301 82 301C54.7 301 27.3 301 13.7 301L0 301Z" fill="#2469c7"></path></svg>