<svg id="visual" viewBox="0 0 900 300" width="900" height="300" xmlns="http://www.w3.org/2000/svg" xmlns:xlink="http://www.w3.org/1999/xlink" version="1.1"><rect x="0" y="0" width="900" height="300" fill="#001220"></rect><path d="M0 199L15 191C30 183 60 167 90 159.2C120 151.3 150 151.7 180 154.8C210 158 240 164 270 170.8C300 177.7 330 185.3 360 182.7C390 180 420 167 450 169C480 171 510 188 540 192.7C570 197.3 600 189.7 630 183C660 176.3 690 170.7 720 169.7C750 168.7 780 172.3 810 171.8C840 171.3 870 166.7 885 164.3L900 162L900 301L885 301C870 301 840 301 810 301C780 301 750 301 720 301C690 301 660 301 630 301C600 301 570 301 540 301C510 301 480 301 450 301C420 301 390 301 360 301C330 301 300 301 270 301C240 301 210 301 180 301C150 301 120 301 90 301C60 301 30 301 15 301L0 301Z" fill="#2d9cab"></path><path d="M0 191L15 193.7C30 196.3 60 201.7 90 201.5C120 201.3 150 195.7 180 190.7C210 185.7 240 181.3 270 186C300 190.7 330 204.3 360 204.8C390 205.3 420 192.7 450 189.3C480 186 510 192 540 198C570 204 600 210 630 213.8C660 217.7 690 219.3 720 219.7C750 220 780 219 810 217.2C840 215.3 870 212.7 885 211.3L900 210L900 301L885 301C870 301 840 301 810 301C780 301 750 301 720 301C690 301 660 301 630 301C600 301 570 301 540 301C510 301 480 301 450 301C420 301 390 301 360 301C330 301 300 301 270 301C240 301 210 301 180 301C150 301 120 301 90 301C60 301 30 301 15 301L0 301Z" fill="#0095b5"></path><path d="M0 215L15 217.8C30 220.7 60 226.3 90 227.3C120 228.3 150 224.7 180 218.7C210 212.7 240 204.3 270 207C300 209.7 330 223.3 360 229.7C390 236 420 235 450 234.7C480 234.3 510 234.7 540 232.8C570 231 600 227 630 223.8C660 220.7 690 218.3 720 215.8C750 213.3 780 210.7 810 211.5C840 212.3 870 216.7 885 218.8L900 221L900 301L885 301C870 301 840 301 810 301C780 301 750 301 720 301C690 301 660 301 630 301C600 301 570 301 540 301C510 301 480 301 450 301C420 301 390 301 360 301C330 301 300 301 270 301C240 301 210 301 180 301C150 301 120 301 90 301C60 301 30 301 15 301L0 301Z" fill="#008dbe"></path><path d="M0 242L15 244C30 246 60 250 90 247.3C120 244.7 150 235.3 180 234.5C210 233.7 240 241.3 270 245C300 248.7 330 248.3 360 248.5C390 248.7 420 249.3 450 245.7C480 242 510 234 540 228.7C570 223.3 600 220.7 630 223.7C660 226.7 690 235.3 720 240.3C750 245.3 780 246.7 810 242.5C840 238.3 870 228.7 885 223.8L900 219L900 301L885 301C870 301 840 301 810 301C780 301 750 301 720 301C690 301 660 301 630 301C600 301 570 301 540 301C510 301 480 301 450 301C420 301 390 301 360 301C330 301 300 301 270 301C240 301 210 301 180 301C150 301 120 301 90 301C60 301 30 301 15 301L0 301Z" fill="#0083c4"></path><path d="M0 264L15 264.3C30 264.7 60 265.3 90 261.7C120 258 150 250 180 247.8C210 245.7 240 249.3 270 251.3C300 253.3 330 253.7 360 251.2C390 248.7 420 243.3 450 242C480 240.7 510 243.3 540 248.3C570 253.3 600 260.7 630 261.2C660 261.7 690 255.3 720 252.3C750 249.3 780 249.7 810 249.8C840 250 870 250 885 250L900 250L900 301L885 301C870 301 840 301 810 301C780 301 750 301 720 301C690 301 660 301 630 301C600 301 570 301 540 301C510 301 480 301 450 301C420 301 390 301 360 301C330 301 300 301 270 301C240 301 210 301 180 301C150 301 120 301 90 301C60 301 30 301 15 301L0 301Z" fill="#0077c7"></path><path d="M0 274L15 275.8C30 277.7 60 281.3 90 281.5C120 281.7 150 278.3 180 275C210 271.7 240 268.3 270 266.7C300 265 330 265 360 268C390 271 420 277 450 279C480 281 510 279 540 278.7C570 278.3 600 279.7 630 281.2C660 282.7 690 284.3 720 285.2C750 286 780 286 810 283.7C840 281.3 870 276.7 885 274.3L900 272L900 301L885 301C870 301 840 301 810 301C780 301 750 301 720 301C690 301 660 301 630 301C600 301 570 301 540 301C510 301 480 301 450 301C420 301 390 301 360 301C330 301 300 301 270 301C240 301 210 301 180 301C150 301 120 301 90 301C60 301 30 301 15 301L0 301Z" fill="#2469c7"></path></svg>