<?xml version="1.0" encoding="UTF-8" standalone="no"?>
<svg
   id="visual"
   viewBox="0 0 900 300"
   width="900"
   height="300"
   version="1.1"
   sodipodi:docname="layered-waves-projects.svg"
   inkscape:version="1.2.1 (9c6d41e410, 2022-07-14)"
   xmlns:inkscape="http://www.inkscape.org/namespaces/inkscape"
   xmlns:sodipodi="http://sodipodi.sourceforge.net/DTD/sodipodi-0.dtd"
   xmlns="http://www.w3.org/2000/svg"
   xmlns:svg="http://www.w3.org/2000/svg">
  <defs
     id="defs66" />
  <sodipodi:namedview
     id="namedview64"
     pagecolor="#ffffff"
     bordercolor="#000000"
     borderopacity="0.25"
     inkscape:showpageshadow="2"
     inkscape:pageopacity="0.0"
     inkscape:pagecheckerboard="0"
     inkscape:deskcolor="#d1d1d1"
     showgrid="false"
     inkscape:zoom="1.4142136"
     inkscape:cx="468.10469"
     inkscape:cy="137.53227"
     inkscape:window-width="1920"
     inkscape:window-height="1019"
     inkscape:window-x="0"
     inkscape:window-y="32"
     inkscape:window-maximized="1"
     inkscape:current-layer="visual" />
  <rect
     x="0"
     y="-301"
     width="900"
     height="300"
     fill="#001220"
     id="rect51"
     transform="scale(1,-1)" />
  <path
     d="m 2.8306191e-6,129.00001 13.7000001693809,1 c 13.6,1 41,3 68.3,6.5 27.299997,3.5 54.700007,8.5 81.800007,4.5 27.2,-4 54.2,-17 81.4,-20 27.1,-3 54.5,4 81.8,13.5 27.29999,9.5 54.69999,21.5 81.99999,24.8 27.3,3.4 54.7,-2 82,-1.1 27.3,0.8 54.7,7.8 82,7.6 27.3,-0.1 54.7,-7.5 81.8,-12 27.2,-4.5 54.2,-6.1 81.4,-2.1 27.1,4 54.5,13.6 81.8,16.3 27.3,2.7 54.7,-1.7 68.3,-3.8 l 13.7,-2.2 v -162 h -13.7 c -13.6,0 -41,0 -68.3,0 -27.3,0 -54.7,0 -81.8,0 -27.2,0 -54.2,0 -81.4,0 -27.1,0 -54.5,0 -81.8,0 -27.3,0 -54.7,0 -82,0 -27.3,0 -54.7,0 -82,0 -27.3,0 -54.7,0 -81.99999,0 -27.3,0 -54.7,0 -81.8,0 -27.2,0 -54.2,0 -81.4,0 -27.1,0 -54.50001,0 -81.800007,0 -27.3,0 -54.7,0 -68.3,0 H 2.830619e-6 Z"
     fill="#20a0ff"
     id="path53" />
  <path
     d="m 0,103.00001 13.7,7.2 c 13.6,7.1 41,21.5 68.3,20.6 27.3,-0.8 54.7,-16.8 81.8,-17.3 27.2,-0.5 54.2,14.5 81.4,15.2 27.1,0.6 54.5,-13 81.8,-13.2 27.3,-0.2 54.7,13.2 82,15 27.3,1.8 54.7,-7.8 82,-10.7 27.3,-2.8 54.7,1.2 82,-2.6 27.3,-3.9 54.7,-15.5 81.8,-21.7 27.2,-6.2 54.2,-6.8 81.4,-0.7 27.1,6.2 54.5,19.2 81.8,28.4 27.3,9.1 54.7,14.5 68.3,17.1 l 13.7,2.7 v -143 h -13.7 c -13.6,0 -41,0 -68.3,0 -27.3,0 -54.7,0 -81.8,0 -27.2,0 -54.2,0 -81.4,0 -27.1,0 -54.5,0 -81.8,0 -27.3,0 -54.7,0 -82,0 -27.3,0 -54.7,0 -82,0 -27.3,0 -54.7,0 -82,0 -27.3,0 -54.7,0 -81.8,0 -27.2,0 -54.2,0 -81.4,0 -27.1,0 -54.5,0 -81.8,0 -27.3,0 -54.7,0 -68.3,0 H 0 Z"
     fill="#2192f1"
     id="path55" />
  <path
     d="m 0,113.00001 13.7,-1.7 c 13.6,-1.6 41,-5 68.3,-12.1 27.3,-7.2 54.7,-18.2 81.8,-16.9 27.2,1.4 54.2,15 81.4,18.5 27.1,3.5 54.5,-3.1 81.8,-7.1 27.3,-4 54.7,-5.4 82,-5 27.3,0.3 54.7,2.3 82,-0.9 27.3,-3.1 54.7,-11.5 82,-13.5 27.3,-2 54.7,2.4 81.8,4.2 27.2,1.8 54.2,1.2 81.4,3.7 27.1,2.5 54.5,8.1 81.8,14.3 27.3,6.2 54.7,12.8 68.3,16.2 l 13.7,3.3 v -116 h -13.7 c -13.6,0 -41,0 -68.3,0 -27.3,0 -54.7,0 -81.8,0 -27.2,0 -54.2,0 -81.4,0 -27.1,0 -54.5,0 -81.8,0 -27.3,0 -54.7,0 -82,0 -27.3,0 -54.7,0 -82,0 -27.3,0 -54.7,0 -82,0 -27.3,0 -54.7,0 -81.8,0 -27.2,0 -54.2,0 -81.4,0 -27.1,0 -54.5,0 -81.8,0 -27.3,0 -54.7,0 -68.3,0 H 0 Z"
     fill="#2285e3"
     id="path57" />
  <path
     d="m 0,85.00001 13.7,-2 c 13.6,-2 41,-6 68.3,-11.2 27.3,-5.1 54.7,-11.5 81.8,-14 27.2,-2.5 54.2,-1.1 81.4,-2.6 27.1,-1.5 54.5,-5.9 81.8,-3 27.3,2.8 54.7,12.8 82,17 27.3,4.1 54.7,2.5 82,0.8 27.3,-1.7 54.7,-3.3 82,-6.2 27.3,-2.8 54.7,-6.8 81.8,-3.8 27.2,3 54.2,13 81.4,17.3 27.1,4.4 54.5,3 81.8,-1.1 27.3,-4.2 54.7,-11.2 68.3,-14.7 l 13.7,-3.5 v -58 h -13.7 c -13.6,0 -41,0 -68.3,0 -27.3,0 -54.7,0 -81.8,0 -27.2,0 -54.2,0 -81.4,0 -27.1,0 -54.5,0 -81.8,0 -27.3,0 -54.7,0 -82,0 -27.3,0 -54.7,0 -82,0 -27.3,0 -54.7,0 -82,0 -27.3,0 -54.7,0 -81.8,0 -27.2,0 -54.2,0 -81.4,0 -27.1,0 -54.5,0 -81.8,0 -27.3,0 -54.7,0 -68.3,0 H 0 Z"
     fill="#2377d5"
     id="path59" />
  <path
     d="M 1.0048474e-5,37 13.70001,38 c 13.6,1 41,3 68.29999,2.5 27.3,-0.5 54.7,-3.5 81.8,-2 27.2,1.5 54.2,7.5 81.4,9.2 27.1,1.6 54.50001,-1 81.80001,-4.4 27.3,-3.3 54.7,-7.3 82,-8.1 27.3,-0.9 54.7,1.5 82,2.5 27.3,1 54.7,0.6 82,-2 27.3,-2.7 54.7,-7.7 81.8,-7.7 27.2,0 54.2,5 81.4,8 27.1,3 54.5,4 81.79999,5 27.3,1 54.7,2 68.3,2.5 L 900,44 V 0 h -13.7 c -13.6,0 -41,0 -68.3,0 -27.29999,0 -54.69999,0 -81.79999,0 -27.2,0 -54.2,0 -81.4,0 -27.1,0 -54.5,0 -81.8,0 -27.3,0 -54.7,0 -82,0 -27.3,0 -54.7,0 -82,0 -27.3,0 -54.7,0 -82,0 C 299.70001,0 272.3,0 245.2,0 218,0 191,0 163.8,0 136.7,0 109.3,0 82,0 54.70001,0 27.30001,0 13.70001,0 H 1.0048474e-5 Z"
     fill="#246ac7"
     id="path61" />
</svg>
